<svg xmlns="http://www.w3.org/2000/svg" width="25" height="34" viewBox="0 0 25 34">
  <defs>
    <style>
      .cls-1 {
        fill: #fff;
        fill-rule: evenodd;
      }
    </style>
  </defs>
  <path id="tas" class="cls-1" d="M24.022,8.536H20.81V5.264A5.222,5.222,0,0,0,15.642,0H9.358A5.222,5.222,0,0,0,4.19,5.264V8.536H0.978a0.987,0.987,0,0,0-.978,1V33a0.987,0.987,0,0,0,.978,1H24.022A0.987,0.987,0,0,0,25,33V9.531a0.987,0.987,0,0,0-.978-1h0ZM8.38,5.264a0.987,0.987,0,0,1,.978-1h6.285a0.987,0.987,0,0,1,.978,1V8.536H8.38V5.264ZM12.5,26.532a5.265,5.265,0,1,1,5.168-5.264A5.222,5.222,0,0,1,12.5,26.532Z"/>
</svg>
