<svg xmlns="http://www.w3.org/2000/svg" width="31" height="35" viewBox="0 0 31 35">
  <defs>
    <style>
      .cls-1 {
        fill: #fff;
        fill-rule: evenodd;
      }
    </style>
  </defs>
  <path id="kantoor" class="cls-1" d="M28.786,32.812V4.375A4.406,4.406,0,0,0,24.357,0H6.643A4.406,4.406,0,0,0,2.214,4.375V32.812H0V35H31V32.812H28.786ZM17.714,6.563h4.429v4.375H17.714V6.563Zm0,6.562h4.429V17.5H17.714V13.125Zm0,6.562h4.429v4.375H17.714V19.688ZM8.857,6.563h4.429v4.375H8.857V6.563Zm0,6.562h4.429V17.5H8.857V13.125Zm0,6.562h4.429v4.375H8.857V19.688Zm2.214,13.125V26.25h8.857v6.562H11.071Z"/>
</svg>
