<svg xmlns="http://www.w3.org/2000/svg" width="34" height="25" viewBox="0 0 34 25">
  <defs>
    <style>
      .cls-1 {
        fill: #fff;
        fill-rule: evenodd;
      }
    </style>
  </defs>
  <path id="kom" class="cls-1" d="M29.357,0H3.326V14.826a3.964,3.964,0,0,0,3.911,4.016h16a3.964,3.964,0,0,0,3.91-4.016V13.1h2.209A4.712,4.712,0,0,0,34,8.334V4.769A4.712,4.712,0,0,0,29.357,0ZM30.2,8.334a0.851,0.851,0,0,1-.838.861H27.148V3.909h2.209a0.85,0.85,0,0,1,.838.861V8.334ZM30.654,20.6H0.764A0.775,0.775,0,0,0,0,21.387,3.571,3.571,0,0,0,3.517,25H27.9a3.571,3.571,0,0,0,3.519-3.613A0.775,0.775,0,0,0,30.654,20.6Z"/>
</svg>
