<svg xmlns="http://www.w3.org/2000/svg" width="36" height="35" viewBox="0 0 36 35">
  <defs>
    <style>
      .cls-1 {
        fill: #fff;
        fill-rule: evenodd;
      }
    </style>
  </defs>
  <path id="huis" class="cls-1" d="M35.394,15.549L19.242,0.495a1.807,1.807,0,0,0-2.487,0L0.6,15.549a1.906,1.906,0,0,0-.478,2.078,1.836,1.836,0,0,0,1.722,1.207h2.58V33.917A1.071,1.071,0,0,0,5.486,35h8.853A1.071,1.071,0,0,0,15.4,33.917V24.759h5.2v9.158A1.071,1.071,0,0,0,21.659,35h8.853a1.071,1.071,0,0,0,1.059-1.083V18.833h2.58a1.836,1.836,0,0,0,1.721-1.207A1.906,1.906,0,0,0,35.394,15.549Zm-4.1-13.389h-7.11l8.169,7.6V3.243A1.071,1.071,0,0,0,31.294,2.161Z"/>
</svg>
