<svg height="512pt" viewBox="-65 0 511 512" width="512pt" xmlns="http://www.w3.org/2000/svg"><path d="m380.773438 456.265625-14.457032-361.53125c-.324218-8.046875-6.9375-14.402344-14.988281-14.402344h-85.417969v-5.082031c0-41.492188-33.757812-75.25-75.25-75.25-41.492187 0-75.25 33.757812-75.25 75.25v5.082031h-85.417968c-8.050782 0-14.664063 6.355469-14.984376 14.402344l-14.460937 361.53125c-.59375 14.792969 4.675781 28.761719 14.835937 39.335937 10.15625 10.574219 23.90625 16.398438 38.710938 16.398438h273.132812c14.804688 0 28.554688-5.824219 38.714844-16.398438 10.160156-10.574218 15.425782-24.542968 14.832032-39.335937zm-235.363282-381.015625c0-24.949219 20.300782-45.25 45.25-45.25 24.953125 0 45.25 20.300781 45.25 45.25v5.082031h-90.5zm120.5 160.664062c0 41.496094-33.757812 75.25-75.25 75.25-41.492187 0-75.25-33.753906-75.25-75.25v-60.25c0-8.28125 6.71875-15 15-15 8.285156 0 15 6.71875 15 15v60.25c0 24.953126 20.300782 45.25 45.25 45.25 24.949219 0 45.25-20.296874 45.25-45.25v-60.25c0-8.28125 6.71875-15 15-15 8.285156 0 15 6.71875 15 15zm0 0"/></svg>