<?xml version="1.0" encoding="utf-8"?>
<!-- Generator: Adobe Illustrator 20.0.0, SVG Export Plug-In . SVG Version: 6.00 Build 0)  -->
<svg version="1.1" id="Logo" xmlns="http://www.w3.org/2000/svg" xmlns:xlink="http://www.w3.org/1999/xlink" x="0px" y="0px"
	 viewBox="0 0 416 89" style="enable-background:new 0 0 416 89;" xml:space="preserve">
<style type="text/css">
	.st0{fill:#6E6E6D;}
	.st1{fill:#133478;}
	.st2{fill:none;}
</style>
<g id="Logo_1_">
	<g>
		<g>
			<g>
				<polygon class="st0" points="39.7,80.5 38.7,74.8 34.7,80.5 				"/>
				<path class="st0" d="M37.8,70.4l-1.4-7.5l-6.7,9.6c-0.2,0.4-0.7,0.4-1.1,0.2l-1.2-0.9c-0.4-0.2-0.4-0.7-0.2-1.1l8.4-12.3
					l-1.4-7.2l-6.8,9.8c-0.2,0.4-0.7,0.4-1.1,0.2L25,60.4c-0.4-0.2-0.4-0.7-0.2-1.1l8.5-12.5l-1.2-6.2c0,0-0.1-0.4-0.3-1.3l-7,10
					c-0.2,0.4-0.7,0.4-1.1,0.2l-1.2-0.9c-0.4-0.2-0.4-0.7-0.2-1.1l8.7-12.7c-0.3-1.6-0.6-3.6-1-5.9l-6.2,8.9
					c-0.2,0.4-0.7,0.4-1.1,0.2l-1.2-0.9c-0.4-0.2-0.4-0.7-0.2-1.1l8-11.7c-0.4-2.4-0.7-5.1-1.1-8l-6.8,9.7c-0.2,0.4-0.7,0.4-1.1,0.2
					l-1.2-0.9c-0.4-0.2-0.4-0.7-0.2-1.1l8.7-12.7c-0.1-1.1-0.3-2.1-0.4-3.2h-3.7l-4.3,6.2c-0.2,0.4-0.7,0.4-1.1,0.2l-1.2-0.9
					c-0.4-0.2-0.4-0.7-0.2-1.1l3.1-4.5H7.5L8,11.9l8.4,5.7c0.3,0.2,0.4,0.6,0.2,0.9l-1,1.4c-0.2,0.3-0.6,0.4-0.9,0.2l-6-4l1,6.7
					l9.1,6.2c0.3,0.2,0.4,0.6,0.2,0.9l-1,1.4c-0.2,0.3-0.6,0.4-0.9,0.2l-6.7-4.5l1,7l9.8,6.7c0.3,0.2,0.4,0.6,0.2,0.9l-1,1.4
					c-0.2,0.3-0.6,0.4-0.9,0.2l-7.4-5l1.2,7.7l9,6.2c0.3,0.2,0.4,0.6,0.2,0.9l-1,1.4c-0.2,0.3-0.6,0.4-0.9,0.2l-6.7-4.5l1,7l9.8,6.7
					c0.3,0.2,0.4,0.6,0.2,0.9l-1,1.4c-0.2,0.3-0.6,0.4-0.9,0.2l-7.4-5l1,6.7l10.4,7.1c0.3,0.2,0.4,0.6,0.2,0.9l-1,1.4
					c-0.2,0.3-0.6,0.4-0.9,0.2l-8.1-5.4l1.2,8h12.6L37.8,70.4z"/>
			</g>
		</g>
		<g>
			<path class="st1" d="M132.5,40.1l9-0.9c0.5,3,1.6,5.2,3.3,6.6c1.6,1.4,3.9,2.1,6.7,2.1c3,0,5.2-0.6,6.7-1.9
				c1.5-1.3,2.3-2.7,2.3-4.4c0-1.1-0.3-2-0.9-2.8c-0.6-0.8-1.7-1.4-3.3-2c-1.1-0.4-3.5-1-7.4-2c-4.9-1.2-8.4-2.7-10.4-4.5
				c-2.8-2.5-4.2-5.6-4.2-9.2c0-2.3,0.7-4.5,2-6.5c1.3-2,3.2-3.6,5.7-4.6c2.5-1.1,5.5-1.6,9-1.6c5.7,0,10,1.3,12.9,3.8
				c2.9,2.5,4.4,5.9,4.6,10l-9.2,0.4c-0.4-2.3-1.2-4-2.5-5.1c-1.3-1-3.2-1.5-5.8-1.5c-2.7,0-4.8,0.5-6.3,1.6c-1,0.7-1.5,1.6-1.5,2.8
				c0,1.1,0.5,2,1.4,2.8c1.2,1,4,2,8.5,3c4.5,1.1,7.8,2.2,9.9,3.3c2.1,1.1,3.8,2.7,5,4.6c1.2,2,1.8,4.4,1.8,7.3
				c0,2.6-0.7,5.1-2.2,7.3c-1.5,2.3-3.5,4-6.2,5.1c-2.7,1.1-6,1.7-9.9,1.7c-5.8,0-10.2-1.3-13.3-4C134.9,49.1,133.1,45.2,132.5,40.1
				z"/>
			<path class="st1" d="M177.3,54.9V9.3h33.8V17h-24.6v10.1h22.9v7.7h-22.9v12.4H212v7.7H177.3z"/>
			<path class="st1" d="M219.8,54.9V9.3h19.4c4.9,0,8.4,0.4,10.6,1.2c2.2,0.8,4,2.3,5.3,4.4c1.3,2.1,2,4.5,2,7.2c0,3.4-1,6.2-3,8.5
				c-2,2.2-5,3.6-9,4.2c2,1.2,3.6,2.4,4.9,3.8c1.3,1.4,3,3.9,5.2,7.4l5.6,8.9h-11l-6.7-9.9c-2.4-3.5-4-5.8-4.9-6.7
				c-0.9-0.9-1.8-1.6-2.8-1.9c-1-0.3-2.5-0.5-4.6-0.5H229v19H219.8z M229,28.6h6.8c4.4,0,7.2-0.2,8.3-0.6c1.1-0.4,2-1,2.6-1.9
				c0.6-0.9,0.9-2.1,0.9-3.4c0-1.5-0.4-2.8-1.2-3.7c-0.8-0.9-2-1.5-3.5-1.8c-0.7-0.1-3-0.2-6.7-0.2H229V28.6z"/>
			<path class="st1" d="M276.2,54.9L260,9.3h10l11.5,33.7l11.2-33.7h9.8l-16.3,45.6H276.2z"/>
			<path class="st1" d="M306.8,54.9V9.3h9.2v45.6H306.8z"/>
			<path class="st1" d="M354,38.1l8.9,2.8c-1.4,5-3.6,8.7-6.8,11.1c-3.2,2.4-7.2,3.6-12.1,3.6c-6.1,0-11-2.1-14.9-6.2
				c-3.9-4.1-5.8-9.8-5.8-17c0-7.6,2-13.5,5.9-17.7c3.9-4.2,9.1-6.3,15.5-6.3c5.6,0,10.1,1.6,13.6,4.9c2.1,1.9,3.6,4.7,4.7,8.4
				l-9.1,2.2c-0.5-2.4-1.7-4.2-3.4-5.6c-1.7-1.4-3.8-2.1-6.2-2.1c-3.4,0-6.1,1.2-8.2,3.6c-2.1,2.4-3.2,6.4-3.2,11.8
				c0,5.8,1,9.9,3.1,12.3s4.8,3.7,8.1,3.7c2.4,0,4.6-0.8,6.3-2.3C351.9,43.9,353.2,41.5,354,38.1z"/>
			<path class="st1" d="M370.8,54.9V9.3h33.8V17H380v10.1h22.9v7.7H380v12.4h25.5v7.7H370.8z"/>
		</g>
		<g>
			<path class="st0" d="M146.3,75.2c-0.5,1.8-1.2,3.1-2.4,3.9c-1.1,0.9-2.5,1.3-4.1,1.3c-2.6,0-4.4-0.8-5.6-2.4
				c-1.2-1.6-1.8-3.5-1.8-5.8c0-2.5,0.7-4.4,2.1-5.9s3.1-2.1,5.3-2.1c1.5,0,2.8,0.4,3.9,1.2s1.8,1.9,2.3,3.4l-2,0.5
				c-0.3-1.1-0.9-1.9-1.6-2.5c-0.7-0.5-1.6-0.8-2.6-0.8c-1.7,0-3,0.6-3.9,1.7c-0.9,1.1-1.3,2.6-1.3,4.5c0,2.2,0.5,3.8,1.4,4.9
				c0.9,1.1,2.1,1.6,3.6,1.6c1.2,0,2.2-0.3,3-1c0.8-0.7,1.3-1.7,1.6-3L146.3,75.2z"/>
			<path class="st0" d="M155.5,64.3c2.2,0,4,0.7,5.4,2.2c1.4,1.5,2.1,3.4,2.1,5.9c0,2.4-0.7,4.4-2.1,5.8c-1.4,1.5-3.2,2.2-5.4,2.2
				c-2.3,0-4.1-0.8-5.4-2.3c-1.4-1.5-2.1-3.4-2.1-5.6c0-2.6,0.7-4.6,2.1-6.1C151.5,65,153.3,64.3,155.5,64.3z M155.5,78.7
				c1.6,0,2.9-0.6,3.9-1.7c1-1.1,1.5-2.7,1.5-4.6c0-2-0.5-3.6-1.5-4.7c-1-1.1-2.3-1.6-3.8-1.6c-1.6,0-2.9,0.5-3.9,1.6
				c-1,1.1-1.5,2.7-1.5,4.9c0,1.8,0.5,3.3,1.5,4.4C152.6,78.1,153.9,78.7,155.5,78.7z"/>
			<path class="st0" d="M180.3,80.2h-2V67.1h0l-4.5,13.1H172l-4.5-13.3h-0.1v13.3h-2V64.6h3.1l3.7,11.1c0.4,1.2,0.6,2,0.7,2.3h0
				c0.2-0.6,0.5-1.4,0.8-2.5l3.7-10.9h2.8V80.2z"/>
			<path class="st0" d="M183.5,64.6h5.9c0.9,0,1.7,0,2.4,0.1c0.7,0.1,1.3,0.3,1.9,0.7c0.6,0.4,1,0.9,1.3,1.6s0.4,1.4,0.4,2.1
				c0,1.4-0.5,2.6-1.4,3.5c-0.9,0.9-2.4,1.3-4.5,1.3h-4v6.3h-2.1V64.6z M185.6,72h4c2.5,0,3.7-1,3.7-2.9c0-0.6-0.2-1.2-0.5-1.7
				c-0.3-0.5-0.7-0.8-1.2-0.9c-0.5-0.1-1.2-0.2-2.1-0.2h-4V72z"/>
			<path class="st0" d="M210.8,80.2h-2.3l-1.8-4.8h-6.5l-1.7,4.8h-2.2l6-15.6h2.2L210.8,80.2z M206,73.8c-1.3-3.4-2-5.3-2.2-5.8
				c-0.2-0.5-0.3-1.1-0.5-1.8h-0.1c-0.2,1.1-0.5,2-0.8,2.9l-1.7,4.7H206z"/>
			<path class="st0" d="M225.5,75.2c-0.5,1.8-1.2,3.1-2.4,3.9c-1.1,0.9-2.5,1.3-4.1,1.3c-2.6,0-4.4-0.8-5.6-2.4
				c-1.2-1.6-1.8-3.5-1.8-5.8c0-2.5,0.7-4.4,2.1-5.9c1.4-1.4,3.1-2.1,5.3-2.1c1.5,0,2.8,0.4,3.9,1.2c1.1,0.8,1.8,1.9,2.3,3.4l-2,0.5
				c-0.3-1.1-0.9-1.9-1.6-2.5c-0.7-0.5-1.6-0.8-2.6-0.8c-1.7,0-3,0.6-3.9,1.7c-0.9,1.1-1.3,2.6-1.3,4.5c0,2.2,0.5,3.8,1.4,4.9
				c0.9,1.1,2.1,1.6,3.6,1.6c1.2,0,2.2-0.3,3-1c0.8-0.7,1.3-1.7,1.6-3L225.5,75.2z"/>
			<path class="st0" d="M239.1,66.4h-5.2v13.8h-2.1V66.4h-5.1v-1.9h12.4V66.4z"/>
			<path class="st0" d="M261.8,80.2h-2V67.1h0l-4.5,13.1h-1.9l-4.5-13.3h-0.1v13.3h-2V64.6h3.1l3.7,11.1c0.4,1.2,0.7,2,0.7,2.3h0
				c0.2-0.6,0.5-1.4,0.8-2.5l3.7-10.9h2.8V80.2z"/>
			<path class="st0" d="M276.7,80.2H265V64.6h11.3v1.9h-9.2v4.8h8.6v1.9h-8.6v5.3h9.6V80.2z"/>
			<path class="st0" d="M292.6,75.2c-0.5,1.8-1.2,3.1-2.4,3.9c-1.1,0.9-2.5,1.3-4.1,1.3c-2.6,0-4.4-0.8-5.6-2.4
				c-1.2-1.6-1.8-3.5-1.8-5.8c0-2.5,0.7-4.4,2.1-5.9c1.4-1.4,3.1-2.1,5.3-2.1c1.5,0,2.8,0.4,3.9,1.2c1.1,0.8,1.8,1.9,2.3,3.4l-2,0.5
				c-0.3-1.1-0.9-1.9-1.6-2.5c-0.7-0.5-1.6-0.8-2.6-0.8c-1.7,0-3,0.6-3.9,1.7c-0.9,1.1-1.3,2.6-1.3,4.5c0,2.2,0.5,3.8,1.4,4.9
				c0.9,1.1,2.1,1.6,3.6,1.6c1.2,0,2.2-0.3,3-1c0.8-0.7,1.3-1.7,1.6-3L292.6,75.2z"/>
			<path class="st0" d="M307.3,80.2h-2.1v-7.4h-8.1v7.4H295V64.6h2.1V71h8.1v-6.4h2.1V80.2z"/>
			<path class="st0" d="M323.4,80.2h-2.3l-1.8-4.8h-6.5l-1.7,4.8h-2.2l6-15.6h2.2L323.4,80.2z M318.6,73.8c-1.3-3.4-2-5.3-2.2-5.8
				c-0.2-0.5-0.3-1.1-0.5-1.8h-0.1c-0.2,1.1-0.5,2-0.8,2.9l-1.7,4.7H318.6z"/>
			<path class="st0" d="M337.2,80.2h-2.1L327,67.9h0v12.3h-2V64.6h2.1l8.2,12.3h0V64.6h2V80.2z"/>
			<path class="st0" d="M342.9,80.2h-2.1V64.6h2.1V80.2z"/>
			<path class="st0" d="M355.7,69.1c-0.1-1-0.4-1.7-1.1-2.2c-0.6-0.5-1.5-0.8-2.7-0.8c-1.1,0-1.9,0.2-2.6,0.6c-0.7,0.4-1,1-1,1.7
				c0,0.7,0.3,1.2,0.8,1.5c0.5,0.3,1.5,0.7,3,1c1.3,0.3,2.3,0.6,3.2,0.9c0.8,0.3,1.5,0.8,2.1,1.4c0.6,0.6,0.9,1.5,0.9,2.5
				c0,1.3-0.5,2.5-1.6,3.3c-1.1,0.9-2.5,1.3-4.2,1.3c-2.2,0-3.8-0.5-4.9-1.5c-1.1-1-1.7-2.3-1.7-3.8l2-0.2c0.1,1.3,0.6,2.2,1.4,2.7
				c0.9,0.6,1.9,0.9,3.2,0.9c1.2,0,2.1-0.2,2.8-0.7c0.7-0.5,1.1-1.1,1.1-1.9c0-0.9-0.4-1.5-1.1-1.9c-0.7-0.4-2-0.8-3.8-1.2
				c-1.8-0.4-3-0.9-3.8-1.6s-1.2-1.6-1.2-2.7c0-1.3,0.5-2.3,1.5-3.1c1-0.8,2.3-1.2,4-1.2c1.7,0,3.1,0.4,4.2,1.2
				c1.1,0.8,1.6,2,1.7,3.5L355.7,69.1z"/>
			<path class="st0" d="M373.7,80.2h-2.3l-1.8-4.8H363l-1.7,4.8h-2.2l6-15.6h2.2L373.7,80.2z M368.9,73.8c-1.3-3.4-2-5.3-2.2-5.8
				c-0.2-0.5-0.3-1.1-0.5-1.8h-0.1c-0.2,1.1-0.5,2-0.8,2.9l-1.7,4.7H368.9z"/>
			<path class="st0" d="M385.9,66.4h-5.2v13.8h-2.1V66.4h-5.1v-1.9h12.4V66.4z"/>
			<path class="st0" d="M390.2,80.2h-2.1V64.6h2.1V80.2z"/>
			<path class="st0" d="M405.4,80.2h-11.7V64.6h11.3v1.9h-9.2v4.8h8.6v1.9h-8.6v5.3h9.6V80.2z"/>
		</g>
		<g>
			<path class="st1" d="M94.6,8.5l-7.9,20.8c0,0-7.8-16.5-8.5-20.8H58.5l26,71.9h4.3l10.1-30.4l0,30.4h16.3V8.5H94.6z"/>
			<polygon class="st0" points="57.6,80.5 73.9,80.5 73.9,56.4 57.6,11.1 			"/>
		</g>
	</g>
	<g>
		<polygon class="st1" points="56.2,8.5 36.5,8.5 32.9,35.3 32.8,35.5 41.3,80.5 41.5,80.5 46.7,80.5 		"/>
	</g>
</g>
<rect id="_x3C_Segment_x3E_" x="-34" y="-36.1" class="st2" width="479" height="163"/>
</svg>
